# xmcd
#
# Track frame offsets:
#	150
#	21347
#	32300
#	64098
#	83842
#	102208
#	122264
#	139207
#	159947
#	189415
#	208598
#	223898
#	247300
#
# Disc length: 3603 seconds
#
# Revision: 7
# Processed by: cddbd v1.5.2PL0 Copyright (c) Steve Scherf et al.
# Submitted via: audiograbber 1.83.01
#
DISCID=b10e110d
DTITLE=Westernhagen - Westernhagen MTV Unplugged  [CD 1)
DYEAR=2016
DGENRE=Rock
TTITLE0=Willst Du Tanzen
TTITLE1=Geiler Is' Schon
TTITLE2=Halt Mich Noch Einmal
TTITLE3=Mit Pfefferminz Bin Ich Dein Prinz (Udo Lindenberg/Drums)
TTITLE4=Luft Um Zu Atmen [Duett Mit Lindiwe Suttle]
TTITLE5=Es Geht Mir Gut
TTITLE6=Weil Ich Dich Liebe
TTITLE7=Alphatier
TTITLE8=Liebe Um Der Freiheit Willen
TTITLE9=Lass Uns Leben [Duett Mit MiMi]
TTITLE10=Liebeswahn
TTITLE11=Rosen
TTITLE12=Durch Deine Liebe [Duett Mit Elen]
EXTD=
EXTT0=
EXTT1=
EXTT2=
EXTT3=
EXTT4=
EXTT5=
EXTT6=
EXTT7=
EXTT8=
EXTT9=
EXTT10=
EXTT11=
EXTT12=
PLAYORDER=
